<?xml version="1.0" encoding="UTF-8"?>
<svg width="57px" height="55px" viewBox="0 0 57 55" version="1.1" xmlns="http://www.w3.org/2000/svg" xmlns:xlink="http://www.w3.org/1999/xlink">
    <title>大数据市场</title>
    <defs>
        <filter x="-7.3%" y="-15.1%" width="114.7%" height="130.2%" filterUnits="objectBoundingBox" id="filter-1">
            <feOffset dx="0" dy="5" in="SourceAlpha" result="shadowOffsetOuter1"></feOffset>
            <feGaussianBlur stdDeviation="10" in="shadowOffsetOuter1" result="shadowBlurOuter1"></feGaussianBlur>
            <feColorMatrix values="0 0 0 0 0.82745098   0 0 0 0 0.878431373   0 0 0 0 0.960784314  0 0 0 1 0" type="matrix" in="shadowBlurOuter1" result="shadowMatrixOuter1"></feColorMatrix>
            <feMerge>
                <feMergeNode in="shadowMatrixOuter1"></feMergeNode>
                <feMergeNode in="SourceGraphic"></feMergeNode>
            </feMerge>
        </filter>
    </defs>
    <g id="深色" stroke="none" stroke-width="1" fill="none" fill-rule="evenodd">
        <g id="企业竞争情报信息系统-改后" transform="translate(-683.000000, -120.000000)" fill="#137CFD" fill-rule="nonzero">
            <g id="招投标" filter="url(#filter-1)" transform="translate(690.000000, 122.000000)">
                <g id="大数据市场" transform="translate(12.000000, 12.000000)">
                    <path d="M3.7499985,6.34091695 L5.2499985,6.34091695 L5.2499985,10.8409169 L3.7499985,10.8409169 L3.7499985,6.34091695 Z M6.00000112,5.59091549 L7.50000112,5.59091549 L7.50000112,8.59091549 L6.00000112,8.59091549 L6.00000112,5.59091549 Z M8.25000374,4.09091433 L9.75000374,4.09091433 L9.75000374,7.84091283 L8.25000374,7.84091283 L8.25000374,4.09091433 Z M10.5000064,5.59091549 L12.0000064,5.59091549 L12.0000064,8.59091549 L10.5000064,8.59091549 L10.5000064,5.59091549 Z M12.750009,6.34091695 L14.250009,6.34091695 L14.250009,10.8409169 L12.750009,10.8409169 L12.750009,6.34091695 Z M6.00000112,9.3409263 L7.50000112,9.3409263 L7.50000112,11.5909289 L6.00000112,11.5909289 L6.00000112,9.3409263 Z" id="形状"></path>
                    <polygon id="路径" points="8.6250159 9.71592087 9.37501735 9.71592087 9.37501735 12.7159302 8.6250159 12.7159302"></polygon>
                    <polygon id="路径" points="10.5000064 9.3409263 12.0000075 9.3409263 12.0000075 11.5909289 10.5000064 11.5909289"></polygon>
                    <path d="M1.50000116,4.84092106 L1.50000116,14.5909383 L16.5000128,14.5909383 L16.5000128,16.0909394 L-1.23047018e-05,16.0909394 L-1.23047018e-05,4.84092106 L1.4999877,4.84092106 L1.50000116,4.84092106 Z M18.0000385,1.09091728 L18.0000385,12.3409356 L16.5000251,12.3409356 L16.5000251,2.59091728 L1.50001346,2.59091728 L1.50001346,1.09091728 L18.0000385,1.09091728 L18.0000385,1.09091728 Z" id="形状"></path>
                    <path d="M0,1.84091078 L0,1.84091078 C0,2.66934005 0.671573047,3.34091078 1.5,3.34091078 C2.32842927,3.34091078 3,2.66934005 3,1.84091078 L3,1.84091078 C3,1.01248382 2.32842927,0.340910776 1.5,0.340910776 C0.671573047,0.340910776 0,1.01248382 0,1.84091078 L0,1.84091078 Z" id="路径"></path>
                    <path d="M15.0000116,15.3409265 L15.0000116,15.3409265 C15.0000116,16.1693558 15.6715846,16.8409265 16.5000116,16.8409265 C17.3284409,16.8409265 18.0000116,16.1693558 18.0000116,15.3409265 L18.0000116,15.3409265 C18.0000116,14.5124995 17.3284409,13.8409265 16.5000116,13.8409265 C15.6715846,13.8409265 15.0000116,14.5124995 15.0000116,15.3409265 L15.0000116,15.3409265 Z" id="路径"></path>
                </g>
            </g>
        </g>
    </g>
</svg>