<?xml version="1.0" encoding="UTF-8"?>
<svg width="20px" height="24px" viewBox="0 0 20 24" version="1.1" xmlns="http://www.w3.org/2000/svg" xmlns:xlink="http://www.w3.org/1999/xlink">
    <title>密码（默认）</title>
    <g id="深色" stroke="none" stroke-width="1" fill="none" fill-rule="evenodd">
        <g id="登陆页面" transform="translate(-845.000000, -377.000000)" fill="#64AAF4" fill-rule="nonzero">
            <g id="Group" transform="translate(796.000000, 205.000000)">
                <g id="登录">
                    <g id="Group-6">
                        <g id="登录" transform="translate(8.000000, 159.000000)">
                            <g id="密码（默认）" transform="translate(41.000000, 13.000000)">
                                <path d="M18.6145979,9.99953299 L16.9562181,9.99953299 L16.9562181,6.44159299 C16.9562181,2.8893916 13.7572319,0 9.81659029,0 C5.87594866,0 2.67696253,2.89226092 2.67696253,6.4473316 C2.67696253,6.95806814 3.1385078,7.37411759 3.70509439,7.37411759 C4.27168099,7.37411759 4.73322626,6.95806814 4.73322626,6.4473316 C4.73322626,3.913734 7.01230493,1.85357195 9.81659029,1.85357198 C12.6208757,1.85357201 14.8999543,3.91086471 14.8999543,6.44159299 L14.8999543,9.99953299 L1.03768109,9.99953299 C0.471094496,9.99953299 0,10.4069745 0,10.9177111 L0,21.666133 C0,22.9429744 1.16182084,23.9816634 2.57828735,23.9816634 L17.0739917,23.9816634 C18.4904582,23.9816634 19.6363636,22.9429744 19.6363636,21.666133 L19.6363636,10.9177111 C19.6331806,10.4069745 19.1843676,9.99953299 18.6145979,9.99953299 Z M17.5800999,21.666133 C17.5800999,21.9215013 17.357285,22.1309607 17.0739917,22.1309607 L2.57828735,22.1309607 C2.29499405,22.1309607 2.05308065,21.9215013 2.05308065,21.666133 L2.05308065,11.853105 L17.5800999,11.853105 L17.5800999,21.666133 Z" id="Shape" transform="translate(9.818182, 11.990832) scale(-1, 1) translate(-9.818182, -11.990832) "></path>
                                <path d="M9.81818182,16.7786898 C10.3527214,16.7786898 10.7881609,16.3626403 10.7881609,15.8519038 L10.7881609,12.5177697 C10.7881609,12.0070332 10.3557244,11.5909837 9.81818182,11.5909837 C9.28364225,11.5909837 8.84820269,12.0070332 8.84820269,12.5177697 L8.84820269,15.8547731 C8.85120574,16.3655097 9.28364225,16.7786898 9.81818182,16.7786898 L9.81818182,16.7786898 Z" id="Shape"></path>
                            </g>
                        </g>
                    </g>
                </g>
            </g>
        </g>
    </g>
</svg>