<?xml version="1.0" encoding="UTF-8"?>
<svg width="90px" height="90px" viewBox="0 0 90 90" version="1.1" xmlns="http://www.w3.org/2000/svg" xmlns:xlink="http://www.w3.org/1999/xlink">
    <title>对手动态</title>
    <defs>
        <filter x="-7.3%" y="-14.7%" width="114.7%" height="129.3%" filterUnits="objectBoundingBox" id="filter-1">
            <feOffset dx="0" dy="5" in="SourceAlpha" result="shadowOffsetOuter1"></feOffset>
            <feGaussianBlur stdDeviation="10" in="shadowOffsetOuter1" result="shadowBlurOuter1"></feGaussianBlur>
            <feColorMatrix values="0 0 0 0 0.82745098   0 0 0 0 0.878431373   0 0 0 0 0.960784314  0 0 0 1 0" type="matrix" in="shadowBlurOuter1" result="shadowMatrixOuter1"></feColorMatrix>
            <feMerge>
                <feMergeNode in="shadowMatrixOuter1"></feMergeNode>
                <feMergeNode in="SourceGraphic"></feMergeNode>
            </feMerge>
        </filter>
    </defs>
    <g id="深色" stroke="none" stroke-width="1" fill="none" fill-rule="evenodd">
        <g id="企业竞争情报信息系统-改后" transform="translate(9.000000, -423.000000)" fill="#137CFD" fill-rule="nonzero">
            <g id="招投标" filter="url(#filter-1)" transform="translate(16.000000, 449.000000)">
                <g id="对手动态" transform="translate(11.000000, 10.000000)">
                    <path d="M13.149683,3.36997938 L13.149683,4.5543456 L13.149683,14.6423413 C13.149683,15.7761131 12.2303775,16.6954142 11.0964743,16.6954142 L3.35816511,16.6954142 C2.22437209,16.6954142 1.30495686,15.7761092 1.30495686,14.6423413 L1.30495686,3.35031473 C1.30495686,2.21640376 2.22438176,1.29699047 3.35816511,1.29699047 L11.096455,1.29699047 C12.2303659,1.29699047 13.149683,2.21641536 13.149683,3.35031473 L13.149683,3.36996277 L13.149683,3.36996277 L13.149683,3.36996277 L13.149683,3.36996277 L13.149683,3.36997938 Z M13.1496826,17.5628641 L13.1496826,17.8798849 L15.5186084,17.8798849 C16.8267808,17.8798849 17.8875535,16.8192243 17.8875535,15.5109591 L17.8875535,6.03498514 C17.8875535,4.72669475 16.8267943,3.66604 15.5186083,3.66604 L14.3340043,3.66604 L14.3340043,2.48167378 C14.3340043,1.17318616 13.2733437,0.11263196 11.9651752,0.11263196 L2.48945262,0.11263196 C1.18116223,0.11263196 0.120507477,1.17321323 0.120507477,2.48167378 L0.120507477,15.5109591 C0.120507477,16.8192494 1.18116803,17.8798849 2.48945262,17.8798849 L11.9651945,17.8798849 C12.3967209,17.8798849 12.8011983,17.7641926 13.1496806,17.5628641 L13.1496806,17.5628641 L13.1496806,17.5628641 L13.1496806,17.5628641 L13.1496826,17.5628641 Z M16.7030713,14.6423413 C16.7030713,15.7761131 15.7838649,16.6954142 14.649979,16.6954142 L14.0172233,16.6954142 C14.2188683,16.346754 14.3342441,15.9423946 14.3342441,15.5109475 L14.3342441,4.8504913 L14.649979,4.8504913 C15.78389,4.8504913 16.7030713,5.76957975 16.7030713,6.90358353 L16.7030713,6.92327121 L16.7030713,14.6423218 L16.7030713,14.6423218 L16.7030713,14.6423218 L16.7030713,14.6423218 L16.7030713,14.6423413 Z M3.67388267,12.8458354 C3.67388267,13.172789 3.93906182,13.1417838 4.26601744,13.1417838 L10.1884866,13.1417838 C10.5156588,13.1417838 10.78072,13.1726904 10.78072,12.8458354 C10.78072,12.5186632 10.5156588,11.9573171 10.1884866,11.9573171 L4.26601744,11.9573171 C3.93906376,11.9573369 3.67388267,12.5186632 3.67388267,12.8458354 L3.67388267,12.8458354 L3.67388267,12.8458354 L3.67388267,12.8458354 Z M3.67388267,9.29233063 C3.67388267,9.61928431 3.93906182,9.58837771 4.26601744,9.58837771 L10.1884866,9.58837771 C10.5156588,9.58837771 10.78072,9.61928431 10.78072,9.29233063 C10.78072,8.96523773 10.5156588,8.40393221 10.1884866,8.40393221 L4.26601744,8.40393221 C3.93906376,8.40391241 3.67388267,8.96523773 3.67388267,9.29233063 L3.67388267,9.29233063 L3.67388267,9.29233063 L3.67388267,9.29233063 Z M3.67388267,5.73888392 C3.67388267,6.06585693 3.93906182,6.03507022 4.26601744,6.03507022 L10.1884866,6.03507024 C10.5156588,6.03507024 10.78072,6.06585811 10.78072,5.73888394 C10.78072,5.41181037 10.5156588,4.8504855 10.1884866,4.8504855 L4.26601744,4.8504855 C3.93906376,4.8504855 3.67388267,5.41183162 3.67388267,5.73888392 L3.67388267,5.73888392 L3.67388267,5.73888392 L3.67388267,5.73888392 Z" id="形状"></path>
                </g>
            </g>
        </g>
    </g>
</svg>