<?xml version="1.0" encoding="UTF-8"?>
<svg width="89px" height="90px" viewBox="0 0 89 90" version="1.1" xmlns="http://www.w3.org/2000/svg" xmlns:xlink="http://www.w3.org/1999/xlink">
    <title>招投标</title>
    <defs>
        <filter x="-7.3%" y="-14.7%" width="114.7%" height="129.3%" filterUnits="objectBoundingBox" id="filter-1">
            <feOffset dx="0" dy="5" in="SourceAlpha" result="shadowOffsetOuter1"></feOffset>
            <feGaussianBlur stdDeviation="10" in="shadowOffsetOuter1" result="shadowBlurOuter1"></feGaussianBlur>
            <feColorMatrix values="0 0 0 0 0.82745098   0 0 0 0 0.878431373   0 0 0 0 0.960784314  0 0 0 1 0" type="matrix" in="shadowBlurOuter1" result="shadowMatrixOuter1"></feColorMatrix>
            <feMerge>
                <feMergeNode in="shadowMatrixOuter1"></feMergeNode>
                <feMergeNode in="SourceGraphic"></feMergeNode>
            </feMerge>
        </filter>
    </defs>
    <g id="深色" stroke="none" stroke-width="1" fill="none" fill-rule="evenodd">
        <g id="企业竞争情报信息系统-改后" transform="translate(8.000000, -97.000000)" fill="#137CFD" fill-rule="nonzero">
            <g id="招投标" filter="url(#filter-1)" transform="translate(16.000000, 122.000000)">
                <g transform="translate(12.000000, 11.000000)" id="形状">
                    <path d="M14.238292,0.757331612 L14.238292,2.99949179 L16.3267005,2.99949179 C16.6686466,2.99949179 16.9509251,3.29554043 16.9509251,3.65814169 L16.9509251,3.72469519 C16.9509251,3.88993127 16.8889616,4.05516735 16.7627395,4.18597991 L15.2962699,5.73506842 C15.1723427,5.86588027 15.0162858,5.93243359 14.8602309,5.93243359 L12.3656304,5.93243359 L8.77863019,9.75810405 C8.71666661,9.82465754 8.65470304,9.85678681 8.56060985,9.85678681 L8.09244006,9.85678681 C7.90425438,9.85678681 7.78032688,9.72597495 7.78032688,9.52631464 L7.78032688,8.9984773 C7.78032688,8.89979471 7.81245615,8.83324122 7.87441972,8.7666886 L11.4614199,4.97543465 L11.4614199,2.34083505 C11.4614199,2.17559896 11.5233835,2.01036288 11.6496056,1.87955032 L13.1160752,0.330461818 C13.2400023,0.165225734 13.3960593,0.0986731156 13.5521141,0.0986731156 L13.5842434,0.0986731156 C13.9560241,0.0986731156 14.2383027,0.394721757 14.2383027,0.757323017 L14.238292,0.757331612 Z M7.28231542,17.8707393 C3.57138421,17.4094546 0.576481285,14.2447267 0.172569689,10.3203675 C-0.389692935,5.14296324 3.4474532,0.757331612 8.21864797,0.757331612 C8.49863206,0.757331612 8.8107435,0.757331612 9.09302202,0.78946088 C9.31104237,0.821590148 9.4372643,1.08550952 9.31104237,1.28516913 L8.93696543,1.91168994 C8.87500186,2.01037253 8.78090919,2.07692602 8.65698134,2.07692602 C8.53305418,2.10905529 8.34486815,2.07692602 8.2209424,2.07692602 C4.16577592,2.07692602 0.923010982,5.80162735 1.39117726,10.187259 C1.73541953,13.5172229 4.29198733,16.188537 7.44065943,16.5511383 C11.5876208,17.012423 15.0805282,13.6158941 15.0805282,9.33123162 C15.0805282,8.53947473 14.956601,7.88082658 14.8625078,7.55036143 C14.8303786,7.41954958 14.8625078,7.28644188 14.9566007,7.21988926 L15.4867324,6.75860454 C15.6749181,6.62779268 15.9227714,6.69205104 15.9847351,6.92384062 C16.2027555,7.71559752 16.2970083,8.50735265 16.2970083,9.33124215 C16.3266826,14.3755412 12.1797076,18.4307077 7.28230139,17.870729 L7.28231542,17.8707393 Z M8.84287785,14.3089814 C5.90993166,14.7037118 3.41533112,12.2320626 3.50942396,9.19812972 C3.57138754,6.85728081 5.22374855,4.84461666 7.40854086,4.41776072 C7.97080173,4.31907813 8.53076992,4.31907813 9.0609017,4.41776072 C9.31105114,4.44988999 9.40514398,4.81249107 9.21695795,4.97772716 C9.21695795,4.97772716 8.74878816,5.40688279 8.56289867,5.57211887 C8.5307694,5.60424814 8.46880582,5.67080146 8.34487832,5.67080146 L8.25078548,5.67080146 C6.09812226,5.67080146 4.41364285,7.71560173 4.81983485,10.0564506 C5.06998429,11.541281 6.19221159,12.6933482 7.59441598,12.9916948 C9.80903593,13.4208504 11.7413774,11.6399714 11.7413774,9.36568216 L11.7413774,9.06963352 C11.7413774,8.97095093 11.7735066,8.90439744 11.8354702,8.83784482 L12.3977311,8.21132401 C12.5537873,8.01395883 12.8957338,8.11264142 12.9278628,8.37656009 C13.05179,8.93652653 13.05179,9.53091825 12.9898264,10.1230138 C12.6157495,12.2642048 10.9014179,14.0129389 8.84286504,14.3089875 L8.84287785,14.3089814 Z"></path>
                </g>
            </g>
        </g>
    </g>
</svg>