<?xml version="1.0" encoding="UTF-8"?>
<svg width="19px" height="24px" viewBox="0 0 19 24" version="1.1" xmlns="http://www.w3.org/2000/svg" xmlns:xlink="http://www.w3.org/1999/xlink">
    <title>手机（点击）</title>
    <g id="深色" stroke="none" stroke-width="1" fill="none" fill-rule="evenodd">
        <g id="登陆页面" transform="translate(-844.000000, -303.000000)" fill="#6CD3FF" fill-rule="nonzero">
            <g id="Group" transform="translate(796.000000, 205.000000)">
                <g id="登录">
                    <g id="Group-6">
                        <g id="Group-5" transform="translate(11.000000, 85.000000)">
                            <g id="手机（点击）" transform="translate(37.000000, 13.000000)">
                                <path d="M9.27319155,19.2484211 C8.48017828,19.2484211 7.83675509,19.797517 7.83675509,20.4716232 C7.83675509,21.1457293 8.48017828,21.6944296 9.27319155,21.6944296 C10.0648111,21.6944296 10.7086989,21.1461249 10.7086989,20.4716232 C10.7086989,19.7967258 10.0648111,19.2484211 9.27319155,19.2484211 L9.27319155,19.2484211 M16.3773269,0 L2.1681271,0 C0.97233555,0 0,0.827995425 0,1.84627551 L0,22.1537237 C0,23.1723994 0.97233555,24 2.1681271,24 L16.3773269,24 C17.5726539,24 18.545454,23.1723994 18.545454,22.1537237 L18.545454,1.84627551 C18.545454,0.828391027 17.5726539,0 16.3773269,0 L16.3773269,0 M2.1681271,1.23111408 L16.3773269,1.23111408 C16.7759241,1.23111408 17.1011199,1.50684882 17.1011199,1.84627551 L17.1011199,17.0615321 L1.44479864,17.0615321 L1.44479864,1.84627551 C1.44479864,1.50684882 1.76952991,1.23111408 2.1681271,1.23111408 L2.1681271,1.23111408 M16.3773269,22.7688852 L2.1681271,22.7688852 C1.76952991,22.7688852 1.44479864,22.4923592 1.44479864,22.1529325 L1.44479864,18.3958984 L17.1011199,18.3958984 L17.1011199,22.1529325 C17.1011199,22.4919636 16.7759241,22.7688852 16.3773269,22.7688852 L16.3773269,22.7688852" id="Shape"></path>
                            </g>
                        </g>
                    </g>
                </g>
            </g>
        </g>
    </g>
</svg>