<?xml version="1.0" encoding="UTF-8"?>
<svg width="88px" height="90px" viewBox="0 0 88 90" version="1.1" xmlns="http://www.w3.org/2000/svg" xmlns:xlink="http://www.w3.org/1999/xlink">
    <title>政策法规</title>
    <defs>
        <filter x="-7.3%" y="-14.6%" width="114.7%" height="129.2%" filterUnits="objectBoundingBox" id="filter-1">
            <feOffset dx="0" dy="5" in="SourceAlpha" result="shadowOffsetOuter1"></feOffset>
            <feGaussianBlur stdDeviation="10" in="shadowOffsetOuter1" result="shadowBlurOuter1"></feGaussianBlur>
            <feColorMatrix values="0 0 0 0 0.82745098   0 0 0 0 0.878431373   0 0 0 0 0.960784314  0 0 0 1 0" type="matrix" in="shadowBlurOuter1" result="shadowMatrixOuter1"></feColorMatrix>
            <feMerge>
                <feMergeNode in="shadowMatrixOuter1"></feMergeNode>
                <feMergeNode in="SourceGraphic"></feMergeNode>
            </feMerge>
        </filter>
    </defs>
    <g id="深色" stroke="none" stroke-width="1" fill="none" fill-rule="evenodd">
        <g id="企业竞争情报信息系统-改后" transform="translate(-667.000000, -423.000000)" fill="#137CFD" fill-rule="nonzero">
            <g id="招投标" filter="url(#filter-1)" transform="translate(688.000000, 448.000000)">
                <g id="政策法规" transform="translate(15.000000, 11.000000)">
                    <path d="M15.835627,2.81173883 L15.835627,2.81173891 C15.834339,2.79563126 15.834339,2.77944656 15.835627,2.76333885 L15.835627,2.73913882 L15.835627,2.73913883 C15.7104909,2.49026354 15.4541629,2.33475731 15.1756262,2.33873837 L3.44301687,2.33873837 L3.44301685,2.33873837 C3.25586474,2.33799073 3.07497834,2.4061171 2.93481626,2.53013859 L2.9348163,2.53013855 C2.80006571,2.65352475 2.72075368,2.82602816 2.71481601,3.00863911 L2.71481601,3.00863819 C2.7267888,3.39134626 3.04596581,3.69232551 3.42871684,3.68183898 L15.1580391,3.68183898 L15.1580391,3.68183898 C15.345547,3.68194141 15.5263569,3.61212768 15.6651397,3.48603875 L15.6651397,3.48603873 C15.7300078,3.42683073 15.7820462,3.35495037 15.8180399,3.27483848 L15.8180399,3.27483848 C15.8315464,3.23735078 15.8393336,3.198044 15.8411399,3.15823835 L15.8411399,2.860138 L15.8411399,2.86013809 C15.8406917,2.84387734 15.8388517,2.82768483 15.83564,2.81173804 L15.835627,2.81173883 Z M15.4660266,4.68394101 L3.22410802,4.68394101 L3.22410811,4.68394101 C2.73758528,4.68578139 2.26968298,4.49704113 1.92060659,4.1581404 L1.92060656,4.15814037 C1.61047066,3.85762948 1.43442963,3.44487978 1.432206,3.01303904 C1.432206,2.09123797 2.24510694,1.34103709 3.2439081,1.34103709 L15.4737309,1.34103709 L15.4737309,1.34103709 C15.568944,1.34713948 15.6624604,1.31371238 15.7322312,1.24863699 L15.7322312,1.24863699 C15.7945321,1.19236548 15.8304334,1.11258445 15.8312313,1.02863673 L15.8312313,0.379635978 L15.8312313,0.379635901 C15.8330402,0.336078643 15.8293443,0.29246746 15.8202313,0.24983575 L15.8202313,0.249835731 C15.7895262,0.101949797 15.6577379,-0.00301846936 15.5067309,6.62375545e-05 L3.24390808,6.62375545e-05 C1.52020607,6.62375545e-05 0.097904419,1.24973689 0.00550001465,2.84913876 L0.00550001465,2.92833885 L0.00549998492,2.9283391 C0.00195621907,2.95827697 0,2.98839229 0,3.01853877 L0,14.8072439 L0,14.8072444 C0.000652176419,14.830423 0.00248792816,14.8535531 0.00550006253,14.8765444 L0.00550007109,14.8765446 C0.00641045106,14.890096 0.00641044461,14.9036931 0.00550005396,14.9172446 L0.00550005396,14.9337446 C0.202400283,16.4517464 1.58510189,17.5957477 3.2240995,17.5957477 L15.3175179,17.5957477 L15.3175179,17.5957477 C15.382213,17.5977076 15.4469603,17.5943967 15.5111181,17.5858477 L15.5111181,17.5858477 C15.6762743,17.5763884 15.8089069,17.446108 15.8213185,17.2811474 L15.8213185,4.99853738 L15.8213185,4.99853758 C15.8202538,4.91464873 15.7843982,4.83496954 15.7223186,4.77853732 L15.7223186,4.77853732 C15.6538755,4.71254627 15.5609222,4.6782374 15.4660183,4.68393721 L15.4660266,4.68394101 Z M1.52901035,5.71024221 L1.52901035,5.71024221 C1.56779936,5.68559509 1.61285386,5.67261336 1.6588105,5.67283919 L1.6588105,5.67283919 C1.69455238,5.67283919 1.72984974,5.68076797 1.76221062,5.69594219 L1.76221037,5.69594206 C1.99652138,5.81199177 2.24450292,5.89810146 2.50031122,5.95224236 L2.50031122,9.18955472 L2.50031123,9.18954897 C2.49958982,9.66887668 2.88757614,10.0580344 3.36690599,10.0587562 C3.49430612,10.058948 3.62018558,10.0310895 3.73560837,9.97715913 L5.51871045,9.15985818 L7.36121904,10.010157 L7.36121909,10.010157 C7.47464491,10.0643811 7.59850785,10.0932826 7.72421952,10.0948571 L7.72421954,10.0948571 C7.88952782,10.0905598 8.05078028,10.042753 8.19172009,9.95625698 L8.19172013,9.95625696 C8.44520167,9.79833394 8.59847997,9.5201 8.5965206,9.2214561 L8.5965206,6.03145239 L14.1801228,6.03145239 L14.1801228,6.03145239 C14.2958571,6.03116852 14.3920219,6.12060191 14.4001231,6.23605263 L14.4001231,16.0447554 L14.4001231,16.0447554 C14.391473,16.1597712 14.2954633,16.2485804 14.1801228,16.2482565 L3.23401437,16.2482565 C2.30451329,16.2482565 1.53011239,15.6047549 1.43221227,14.7478539 L1.43221224,14.7478536 C1.42363805,14.6881259 1.42032535,14.6277607 1.42231227,14.5674534 L1.42231224,14.567452 C1.42103026,14.5042288 1.42433902,14.4409959 1.43221244,14.3782518 L1.43221244,5.87633764 L1.43221244,5.87633831 C1.43298808,5.80779126 1.46975449,5.74470296 1.5290119,5.71023769 L1.52901035,5.71024221 Z M3.84782164,6.07104263 L7.22922987,6.07104263 L7.22922987,8.47014112 L5.87072829,7.83214038 L5.87072835,7.83214041 C5.64269078,7.71914514 5.37496508,7.71914514 5.14692751,7.83214035 L3.84782164,8.42504104 L3.84782164,6.07104263 Z" id="形状"></path>
                </g>
            </g>
        </g>
    </g>
</svg>