<?xml version="1.0" encoding="UTF-8"?>
<svg width="16px" height="16px" viewBox="0 0 16 16" version="1.1" xmlns="http://www.w3.org/2000/svg" xmlns:xlink="http://www.w3.org/1999/xlink">
    <title>退出</title>
    <g id="深色" stroke="none" stroke-width="1" fill="none" fill-rule="evenodd">
        <g id="企业竞争情报信息系统-改后" transform="translate(-1298.000000, -26.000000)">
            <g id="logo" transform="translate(0.000000, -1.000000)">
                <g id="Group-6" transform="translate(1153.000000, 25.000000)">
                    <g id="退出" transform="translate(145.000000, 2.000000)">
                        <rect id="矩形" x="0" y="0" width="16" height="16"></rect>
                        <path d="M15.1687667,7.37125811 L11.5267312,3.72922262 C11.1228245,3.3253159 10.7911054,3.46109731 10.7911054,4.03344173 L10.7911054,6.55313216 L4.32172285,6.55313216 C4.03469126,6.55313216 3.80265974,6.78860118 3.80094099,7.07391402 L3.80094099,9.4698543 C3.80094099,9.75688589 4.03641002,9.99063616 4.32172285,9.99063616 L10.7893866,9.99063616 L10.7893866,12.1837637 C10.7893866,12.7561081 11.1211058,12.895327 11.5250125,12.4879828 L15.1687667,8.84422858 C15.5743922,8.43688435 15.5743922,7.77688358 15.1687667,7.37125811 Z M11.3187622,15.827518 L2.99312755,15.827518 C1.78140739,15.827518 0.8,14.8426731 0.8,13.6343904 L0.8,2.59312755 C0.8,1.38140739 1.7848449,0.4 2.99312755,0.4 L11.320481,0.4 L11.320481,1.54468883 L2.99312755,1.54468883 C2.41390813,1.54468883 1.94468883,2.01562688 1.94468883,2.59312755 L1.94468883,13.6326716 C1.94468883,14.2118911 2.41562688,14.6811104 2.99312755,14.6811104 L11.320481,14.6811104 L11.3187622,15.827518 Z" id="形状" fill="#FFFFFF" fill-rule="nonzero"></path>
                    </g>
                </g>
            </g>
        </g>
    </g>
</svg>